<?xml version="1.0" encoding="utf-8"?>
<!-- Generator: Adobe Illustrator 26.0.1, SVG Export Plug-In . SVG Version: 6.00 Build 0)  -->
<svg version="1.1" id="Capa_1" xmlns="http://www.w3.org/2000/svg" xmlns:xlink="http://www.w3.org/1999/xlink" x="0px" y="0px"
	 viewBox="0 0 141.7 141.7" style="enable-background:new 0 0 141.7 141.7;" xml:space="preserve">
<style type="text/css">
	.st0{fill:#9D9D9C;}
</style>
<g>
	<path class="st0" d="M70.9,73c25.1,0,47.3,13.3,61.1,33.8c6.2-10.5,9.8-22.8,9.8-35.9C141.7,31.7,110,0,70.9,0
		C31.7,0,0,31.7,0,70.9C0,84,3.6,96.2,9.8,106.8C23.6,86.3,45.8,73,70.9,73z"/>
	<path d="M70.9,141.7c26,0,48.8-14,61.1-35C118.1,86.3,95.9,73,70.9,73S23.6,86.3,9.8,106.8C22.1,127.7,44.8,141.7,70.9,141.7z"/>
</g>
<circle cx="70.9" cy="37.9" r="27.6"/>
</svg>
