<?xml version="1.0" encoding="utf-8"?>
<!-- Generator: Adobe Illustrator 26.0.1, SVG Export Plug-In . SVG Version: 6.00 Build 0)  -->
<svg version="1.1" xmlns="http://www.w3.org/2000/svg" xmlns:xlink="http://www.w3.org/1999/xlink" x="0px" y="0px"
	 viewBox="0 0 141.73 124.6" style="enable-background:new 0 0 141.73 124.6;" xml:space="preserve">
<style type="text/css">
	.st0{fill:#08151E;}
</style>
<g id="Capa_1">
	<path class="st0" d="M45.87,88.95h72.67c1.87,0,3.52-1.22,4.07-3.01l17.15-56.26c0.39-1.29,0.15-2.69-0.65-3.77
		c-0.8-1.08-2.07-1.72-3.42-1.72H43.64L40.76,5c-0.31-2.08-2.1-3.62-4.21-3.62H4.82c-2.35,0-4.25,1.9-4.25,4.25s1.9,4.25,4.25,4.25
		h28.07l10.62,70.79c-6.23,1.12-10.98,6.57-10.98,13.12c0,7.36,5.99,13.34,13.34,13.34h5.17c-0.45,1.3-0.71,2.69-0.71,4.14
		c0,6.97,5.67,12.65,12.65,12.65s12.65-5.67,12.65-12.65c0-1.45-0.26-2.84-0.71-4.14h21.02c-0.45,1.3-0.71,2.69-0.71,4.14
		c0,6.97,5.67,12.65,12.65,12.65c6.97,0,12.65-5.67,12.65-12.65c0-1.45-0.26-2.84-0.71-4.14h2.17c2.35,0,4.25-1.9,4.25-4.25
		s-1.9-4.25-4.25-4.25h-76.1c-2.67,0-4.84-2.17-4.84-4.84S43.2,88.95,45.87,88.95z M67.12,111.28c0,2.28-1.86,4.14-4.14,4.14
		s-4.14-1.86-4.14-4.14c0-2.28,1.86-4.14,4.14-4.14S67.12,108.99,67.12,111.28z M112.01,111.28c0,2.28-1.86,4.14-4.14,4.14
		c-2.28,0-4.14-1.86-4.14-4.14c0-2.28,1.86-4.14,4.14-4.14C110.16,107.14,112.01,108.99,112.01,111.28z M129.95,32.69l-14.56,47.76
		H52.08l-7.16-47.76H129.95z"/>
</g>
<g id="Capa_2">
</g>
</svg>
