<?xml version="1.0" encoding="utf-8"?>
<!-- Generator: Adobe Illustrator 26.0.1, SVG Export Plug-In . SVG Version: 6.00 Build 0)  -->
<svg version="1.1" id="Capa_1" xmlns="http://www.w3.org/2000/svg" xmlns:xlink="http://www.w3.org/1999/xlink" x="0px" y="0px"
	 viewBox="0 0 141.7 141.7" style="enable-background:new 0 0 141.7 141.7;" xml:space="preserve">
<style type="text/css">
	.st0{fill:#FFFFFF;}
</style>
<g>
	<rect y="0" width="141.7" height="141.7"/>
	<path class="st0" d="M4.6,137.1h132.5V4.6H4.6V137.1z M8.3,8.3h125.2v125.2H8.3V8.3z"/>
	<path class="st0" d="M33.9,30h-4.2c-4.8,0-8.6,3.2-8.6,7.2v39.6c0,4,3.9,7.2,8.6,7.2h4.2c4.8,0,8.6-3.2,8.6-7.2V37.2
		C42.5,33.2,38.7,30,33.9,30z M35.3,76.3c-0.2,0.1-0.7,0.3-1.3,0.3h-4.2c-0.7,0-1.1-0.2-1.3-0.3V37.6c0.2-0.1,0.7-0.3,1.3-0.3h4.2
		c0.7,0,1.1,0.2,1.3,0.3V76.3z"/>
	<path class="st0" d="M61.3,64.6c4.8,0,8.6-3.2,8.6-7.2V57V37.6v-0.4c0-4-3.9-7.2-8.6-7.2h-2.1H48.5c0,7.3,0,27,0,27v27h7.3V64.6
		H61.3z M55.8,37.6c0.2-0.1,0.7-0.3,1.3-0.3h2.1h2.1c0.7,0,1.1,0.2,1.3,0.3V57c-0.2,0.1-0.7,0.3-1.3,0.3h-5.5V57V37.6z"/>
	<path class="st0" d="M112,30h-2.1h-2.1c-4.8,0-8.6,3.2-8.6,7.2v0.4V57v0.4v26.5h7.3V64.6h1.3h4.2h1.3v19.3h7.3V57.4V57V37.6v-0.4
		C120.6,33.2,116.7,30,112,30z M107.8,57.3c-0.7,0-1.1-0.2-1.3-0.3V37.6c0.2-0.1,0.7-0.3,1.3-0.3h2.1h2.1c0.7,0,1.1,0.2,1.3,0.3V57
		c-0.2,0.1-0.7,0.3-1.3,0.3H107.8z"/>
	<polygon class="st0" points="80.7,83.9 87.9,83.9 87.9,37.3 95,37.3 95,30 87.9,30 80.7,30 73.6,30 73.6,37.3 80.7,37.3 	"/>
	<path class="st0" d="M39,90.4c-0.4-0.1-1-0.1-1.1-0.1h-8.1V112h4v-9h3.4c2,0,2.9-0.3,3.5-1.1c0.7-0.8,0.8-1.8,0.8-3.8v-2.9
		c0-1,0-2.3-0.5-3.3C40.9,91.5,40.3,90.7,39,90.4z M37.7,95.7v2.2c0,0.4,0,1.1-0.3,1.5c-0.2,0.3-0.7,0.4-1.5,0.4h-1.9v-6.4h2
		c0.2,0,1-0.1,1.5,0.5C37.8,94.5,37.7,95.1,37.7,95.7z"/>
	<polygon class="st0" points="51.6,98.8 48,98.8 48,90.3 44,90.3 44,112 48,112 48,102.1 51.6,102.1 51.6,112 55.6,112 55.6,90.3 
		51.6,90.3 	"/>
	<path class="st0" d="M64.6,89.8c-2.4,0-3.9,0.7-4.7,1.4c-1.4,1.3-1.4,3.5-1.4,3.9v12.2c0,0.8,0.1,1.7,0.5,2.5
		c0.1,0.3,0.4,0.8,1.1,1.4c1.3,1,2.9,1.3,4.5,1.3c1.7,0,3.4-0.2,4.7-1.4c1-1,1.3-2.3,1.3-3.7V95.3c0-1.5-0.2-2.2-0.5-2.9
		C69.4,91.1,67.7,89.8,64.6,89.8z M66.5,95.6v11.2c0,0.8,0,1.7-0.7,2.2c-0.5,0.3-1.1,0.4-1.3,0.4c-0.2,0-1.2,0-1.6-0.6
		c-0.4-0.6-0.4-1.4-0.4-2v-11c0-0.9-0.1-1.8,0.8-2.5c0.5-0.4,1.1-0.4,1.3-0.4c1,0,1.5,0.6,1.7,1C66.6,94.5,66.5,95.4,66.5,95.6z"/>
	<polygon class="st0" points="72,93.4 76,93.4 76,112 80,112 80,93.4 84,93.4 84,90.3 72,90.3 	"/>
	<path class="st0" d="M91.5,89.8c-2.4,0-3.9,0.7-4.7,1.4c-1.4,1.3-1.4,3.5-1.4,3.9v12.2c0,0.8,0.1,1.7,0.5,2.5
		c0.1,0.3,0.4,0.8,1.1,1.4c1.3,1,2.9,1.3,4.5,1.3c1.7,0,3.4-0.2,4.7-1.4c1-1,1.3-2.3,1.3-3.7V95.3c0-1.5-0.2-2.2-0.5-2.9
		C96.3,91.1,94.6,89.8,91.5,89.8z M93.4,95.6v11.2c0,0.8,0,1.7-0.7,2.2c-0.5,0.3-1.1,0.4-1.3,0.4c-0.2,0-1.2,0-1.6-0.6
		c-0.4-0.6-0.4-1.4-0.4-2v-11c0-0.9-0.1-1.8,0.8-2.5c0.5-0.4,1.1-0.4,1.3-0.4c1,0,1.5,0.6,1.7,1C93.5,94.5,93.4,95.4,93.4,95.6z"/>
	<path class="st0" d="M109.2,100.5l-3.9-2.7c-0.4-0.3-0.7-0.5-0.8-0.7c-0.5-0.7-0.4-2-0.4-2.1c0-1.8,0.9-2.2,1.8-2.2
		c1.5,0,1.8,0.9,1.8,1.6v2.2h4v-2.2c0-1-0.1-1.3-0.3-1.8c-1.1-2.9-4.6-2.9-5.3-2.9c-0.4,0-4.2,0-5.4,2.6c-0.6,1.1-0.5,2.7-0.5,3
		c0,1.8,0.3,2.7,0.8,3.4c0.6,0.9,1,1.2,1.8,1.8l3.8,2.6c0.2,0.1,0.6,0.4,0.9,0.9c0.5,0.7,0.4,1.7,0.4,2c0,1.5,0,2.4-0.6,2.9
		c-0.3,0.2-0.7,0.4-1.4,0.4c-0.6,0-1-0.2-1.2-0.3c-0.8-0.5-0.7-1.4-0.7-2.2v-2.5h-4v3.2c0,1.2,0.2,1.6,0.4,2.2
		c0.2,0.3,0.4,0.9,1.1,1.5c1.3,1,2.9,1.2,4.5,1.2c3.7,0,5.1-1.6,5.6-3.3c0.2-0.8,0.2-1.5,0.2-3.2c0-1.5,0.1-2.5-0.9-3.8
		C110.3,101.3,109.5,100.7,109.2,100.5z"/>
</g>
</svg>
